<svg xmlns="http://www.w3.org/2000/svg" viewBox="0 0 400 400">
    <!-- Background Circle -->
    <circle cx="200" cy="200" r="180" fill="#f0f9ff" stroke="#e0e7ff" stroke-width="4" />

    <!-- Color Palette -->
    <defs>
        <linearGradient id="primaryGradient" x1="0%" y1="0%" x2="100%" y2="100%">
            <stop offset="0%" stop-color="#4f46e5" />
            <stop offset="100%" stop-color="#7c3aed" />
        </linearGradient>
        <linearGradient id="accentGradient" x1="0%" y1="0%" x2="100%" y2="0%">
            <stop offset="0%" stop-color="#22c55e" />
            <stop offset="100%" stop-color="#10b981" />
        </linearGradient>
    </defs>

    <!-- Graduation Cap Symbol -->
    <g transform="translate(200, 150) scale(1.3)">
        <!-- Cap Base -->
        <rect x="-60" y="20" width="120" height="10" rx="2" fill="url(#primaryGradient)" />

        <!-- Cap Top -->
        <path d="M0,-20 L-60,10 L60,10 Z" fill="url(#primaryGradient)" />

        <!-- Tassel -->
        <path d="M40,10 Q45,25 50,40" stroke="#7c3aed" stroke-width="4" fill="none" />
        <circle cx="50" cy="45" r="5" fill="#7c3aed" />
    </g>

    <!-- Growth/Performance Chart -->
    <g transform="translate(120, 230)">
        <!-- Chart Frame -->
        <rect
            x="0"
            y="0"
            width="160"
            height="90"
            rx="5"
            fill="white"
            stroke="#d1d5db"
            stroke-width="2"
        />

        <!-- Chart Grid -->
        <line x1="0" y1="30" x2="160" y2="30" stroke="#f3f4f6" stroke-width="1" />
        <line x1="0" y1="60" x2="160" y2="60" stroke="#f3f4f6" stroke-width="1" />
        <line x1="40" y1="0" x2="40" y2="90" stroke="#f3f4f6" stroke-width="1" />
        <line x1="80" y1="0" x2="80" y2="90" stroke="#f3f4f6" stroke-width="1" />
        <line x1="120" y1="0" x2="120" y2="90" stroke="#f3f4f6" stroke-width="1" />

        <!-- Performance Line -->
        <path
            d="M10,70 L40,50 L70,60 L100,30 L130,20 L150,10"
            stroke="url(#accentGradient)"
            stroke-width="4"
            fill="none"
            stroke-linecap="round"
            stroke-linejoin="round"
        />

        <!-- Data Points -->
        <circle cx="10" cy="70" r="4" fill="#10b981" />
        <circle cx="40" cy="50" r="4" fill="#10b981" />
        <circle cx="70" cy="60" r="4" fill="#10b981" />
        <circle cx="100" cy="30" r="4" fill="#10b981" />
        <circle cx="130" cy="20" r="4" fill="#10b981" />
        <circle cx="150" cy="10" r="4" fill="#10b981" />
    </g>

    <!-- Magnifying Glass (Analysis) -->
    <g transform="translate(270, 140) rotate(-20)">
        <circle
            cx="0"
            cy="0"
            r="25"
            fill="white"
            stroke="#4f46e5"
            stroke-width="4"
            fill-opacity="0.8"
        />
        <line
            x1="20"
            y1="20"
            x2="40"
            y2="40"
            stroke="#4f46e5"
            stroke-width="6"
            stroke-linecap="round"
        />
    </g>

    <!-- Students Silhouettes -->
    <g transform="translate(130, 150)">
        <circle cx="0" cy="0" r="10" fill="#4f46e5" opacity="0.8" />
        <path d="M-5,10 L-5,30 L5,30 L5,10" fill="#4f46e5" opacity="0.8" />
    </g>

    <g transform="translate(160, 150)">
        <circle cx="0" cy="0" r="10" fill="#4f46e5" opacity="0.6" />
        <path d="M-5,10 L-5,30 L5,30 L5,10" fill="#4f46e5" opacity="0.6" />
    </g>

    <g transform="translate(190, 150)">
        <circle cx="0" cy="0" r="10" fill="#4f46e5" opacity="0.4" />
        <path d="M-5,10 L-5,30 L5,30 L5,10" fill="#4f46e5" opacity="0.4" />
    </g>

    <!-- Decorative Elements -->
    <circle cx="100" cy="100" r="10" fill="#22c55e" opacity="0.3" />
    <circle cx="300" cy="100" r="15" fill="#4f46e5" opacity="0.2" />
    <circle cx="320" cy="320" r="12" fill="#22c55e" opacity="0.2" />
    <circle cx="80" cy="320" r="8" fill="#4f46e5" opacity="0.3" />
</svg>
